<svg xmlns="http://www.w3.org/2000/svg" width="42" height="42" viewBox="0 0 42 42" fill="none">
    <g clip-path="url(#clip0_97_5644)">
      <path d="M27.8793 34.9093C29.679 34.9093 31.1379 36.3577 31.1379 38.1443C31.1379 39.9309 29.679 41.3792 27.8793 41.3792C26.0796 41.3792 24.6207 39.9309 24.6207 38.1443C24.6207 36.3577 26.0796 34.9093 27.8793 34.9093ZM41.2759 37.4254C41.6758 37.4254 42 37.7472 42 38.1443C42 38.5413 41.6758 38.8631 41.2759 38.8631H34.0345C33.6345 38.8631 33.3103 38.5413 33.3103 38.1443C33.3103 37.7472 33.6345 37.4254 34.0345 37.4254H41.2759ZM21.7241 37.4254C22.1241 37.4254 22.4483 37.7472 22.4483 38.1443C22.4483 38.5413 22.1241 38.8631 21.7241 38.8631H0.724138C0.324208 38.8631 0 38.5413 0 38.1443C0 37.7472 0.324208 37.4254 0.724138 37.4254H21.7241ZM14.1207 25.564C15.9204 25.564 17.3793 27.0123 17.3793 28.7989C17.3793 30.5855 15.9204 32.0339 14.1207 32.0339C12.321 32.0339 10.8621 30.5855 10.8621 28.7989C10.8621 27.0123 12.321 25.564 14.1207 25.564ZM7.96552 28.0801C8.36545 28.0801 8.68965 28.4019 8.68965 28.7989C8.68965 29.1676 8.41011 29.4715 8.04997 29.513L7.96552 29.5178H0.724138C0.324208 29.5178 0 29.196 0 28.7989C0 28.4303 0.279546 28.1264 0.639688 28.0849L0.724138 28.0801H7.96552ZM41.2759 28.0801C41.6758 28.0801 42 28.4019 42 28.7989C42 29.1676 41.7204 29.4715 41.3603 29.513L41.2759 29.5178H20.2759C19.8759 29.5178 19.5517 29.196 19.5517 28.7989C19.5517 28.4303 19.8313 28.1264 20.1914 28.0849L20.2759 28.0801H41.2759ZM16.6552 0.403564C18.6548 0.403564 20.2759 2.01281 20.2759 3.99792V16.9376C20.2759 18.9227 18.6548 20.5319 16.6552 20.5319H3.62069C1.62104 20.5319 0 18.9227 0 16.9376V3.99792C0 2.01281 1.62104 0.403564 3.62069 0.403564H16.6552ZM38.3793 0.403564C40.379 0.403564 42 2.01281 42 3.99792V16.9376C42 18.9227 40.379 20.5319 38.3793 20.5319H25.3448C23.3452 20.5319 21.7241 18.9227 21.7241 16.9376V3.99792C21.7241 2.01281 23.3452 0.403564 25.3448 0.403564H38.3793ZM16.6552 1.84131H3.62069C2.4209 1.84131 1.44828 2.80685 1.44828 3.99792V16.9376C1.44828 18.1286 2.4209 19.0942 3.62069 19.0942H16.6552C17.855 19.0942 18.8276 18.1286 18.8276 16.9376V3.99792C18.8276 2.80685 17.855 1.84131 16.6552 1.84131ZM38.3793 1.84131H25.3448C24.145 1.84131 23.1724 2.80685 23.1724 3.99792V16.9376C23.1724 18.1286 24.145 19.0942 25.3448 19.0942H38.3793C39.5791 19.0942 40.5517 18.1286 40.5517 16.9376V3.99792C40.5517 2.80685 39.5791 1.84131 38.3793 1.84131ZM33.8236 8.00629C35.8612 8.00629 37.5131 9.64609 37.5131 11.6689C37.5131 13.6917 35.8612 15.3315 33.8236 15.3315C32.0387 15.3315 30.5499 14.0732 30.208 12.4014L33.2689 12.4014C33.3974 12.4014 33.5236 12.3678 33.6348 12.3041C33.9848 12.1035 34.1047 11.6592 33.9027 11.3117L32.1977 8.38021C32.6882 8.14077 33.2401 8.00629 33.8236 8.00629ZM14.0225 8.37022C15.5451 8.37022 16.4131 9.05955 16.4131 10.2413V13.9784H14.7069V13.2989H14.6127C14.3647 13.7667 13.7596 14.0621 13.0603 14.0621C11.9988 14.0621 11.2747 13.4072 11.2747 12.4028C11.2747 11.4033 12.0584 10.8223 13.4818 10.7386L14.6871 10.6696V10.2413C14.6871 9.87197 14.4093 9.6504 13.9233 9.6504C13.462 9.6504 13.1644 9.80304 13.0503 10.0935H11.4731C11.5525 9.03001 12.5296 8.37022 14.0225 8.37022ZM8.49028 6.8734L10.8958 13.9784H8.91187L8.46548 12.4176H6.1294L5.66813 13.9784H3.86275L6.26331 6.8734H8.49028ZM14.6871 11.6495L13.7596 11.7085C13.2388 11.7479 12.966 11.9498 12.966 12.2797C12.966 12.6293 13.2586 12.8459 13.7001 12.8459C14.2556 12.8459 14.6871 12.4816 14.6871 12.0089V11.6495ZM30.2197 5.17367C30.3309 5.23743 30.4233 5.32913 30.4875 5.43957L32.1977 8.38021C30.9754 8.97689 30.1342 10.2254 30.1342 11.6689C30.1342 11.9198 30.1596 12.1647 30.208 12.4014H26.4387C26.0345 12.4014 25.7069 12.0762 25.7069 11.6749C25.7069 11.5474 25.7407 11.4222 25.8049 11.3117L29.2201 5.43957C29.4221 5.09211 29.8697 4.97306 30.2197 5.17367ZM7.35448 8.47362H7.26024L6.47659 11.1177H8.12326L7.35448 8.47362Z" fill="#D1D292"/>
    </g>
    <defs>
      <clipPath id="clip0_97_5644">
        <rect width="42" height="42" fill="white"/>
      </clipPath>
    </defs>
  </svg>