<svg xmlns="http://www.w3.org/2000/svg" width="270" height="159" viewBox="0 0 270 159" fill="none">
  <g clip-path="url(#clip0_97_5592)">
  <path d="M49.1904 43.2749V17.6738C49.1904 9.12407 56.0997 2.19312 64.6227 2.19312H252.382C260.905 2.19312 267.814 9.12407 267.814 17.6738V141.52C267.814 150.069 260.905 157 252.382 157H90.0065" stroke="#096634" stroke-width="3" stroke-linecap="round" stroke-linejoin="round"/>
  <path d="M68.8667 56.1177H29.5145C24.6848 56.1177 20.7695 60.0452 20.7695 64.8901V148.228C20.7695 153.073 24.6848 157 29.5145 157H68.8667C73.6964 157 77.6116 153.073 77.6116 148.228V64.8901C77.6116 60.0452 73.6964 56.1177 68.8667 56.1177Z" stroke="#096634" stroke-width="3"/>
  <path d="M53.5627 64.6965H44.8177C44.214 64.6965 43.7246 65.1875 43.7246 65.7931C43.7246 66.3987 44.214 66.8896 44.8177 66.8896H53.5627C54.1664 66.8896 54.6558 66.3987 54.6558 65.7931C54.6558 65.1875 54.1664 64.6965 53.5627 64.6965Z" fill="#096634"/>
  <path d="M261.802 54.9244C261.802 54.016 261.068 53.2795 260.162 53.2795C259.257 53.2795 258.522 54.016 258.522 54.9244V104.269C258.522 105.178 259.257 105.914 260.162 105.914C261.068 105.914 261.802 105.178 261.802 104.269V54.9244Z" fill="#096634"/>
  <path d="M9.83806 18.6414C10.4939 18.6414 10.9312 19.08 10.9312 19.7379C10.9312 20.3958 10.4939 20.8345 9.83806 20.8345H6.5587C4.15385 20.8345 2.18623 22.8083 2.18623 25.2207C2.18623 27.6331 4.15385 29.6069 6.5587 29.6069H9.83806C10.4939 29.6069 10.9312 30.0455 10.9312 30.7034C10.9312 31.3614 10.4939 31.8 9.83806 31.8H6.5587C2.95142 31.8 0 28.8393 0 25.2207C0 21.602 2.95142 18.6414 6.5587 18.6414H9.83806ZM16.3968 18.6414H19.6761C23.2834 18.6414 26.2348 21.602 26.2348 25.2207C26.2348 28.757 23.416 31.6651 19.921 31.7954L19.6761 31.8H16.3968C15.7409 31.8 15.3036 31.3614 15.3036 30.7034C15.3036 30.0925 15.6807 29.6707 16.2596 29.6135L16.3968 29.6069H19.6761C22.081 29.6069 24.0486 27.6331 24.0486 25.2207C24.0486 22.8814 22.1984 20.9545 19.8935 20.8399L19.6761 20.8345H16.3968C15.7409 20.8345 15.3036 20.3958 15.3036 19.7379C15.3036 19.127 15.6807 18.7051 16.2596 18.648L16.3968 18.6414ZM8.74494 24.1241H17.4899C18.1458 24.1241 18.583 24.5627 18.583 25.2207C18.583 25.8316 18.206 26.2534 17.627 26.3106L17.4899 26.3172H8.74494C8.08907 26.3172 7.65182 25.8786 7.65182 25.2207C7.65182 24.6097 8.02884 24.1879 8.60782 24.1308L8.74494 24.1241ZM158.502 68.6312C164.539 68.6312 169.433 73.5406 169.433 79.5967C169.433 85.6528 164.539 90.5622 158.502 90.5622C152.465 90.5622 147.571 85.6528 147.571 79.5967C147.571 73.5406 152.465 68.6312 158.502 68.6312ZM135.428 69.6876C135.893 69.9567 136.279 70.3437 136.547 70.8099L144.897 85.3179C145.741 86.7845 145.24 88.6597 143.778 89.5064C143.314 89.7755 142.787 89.9172 142.25 89.9172H125.55C123.862 89.9172 122.493 88.5444 122.493 86.851C122.493 86.3128 122.635 85.784 122.903 85.3179L131.253 70.8099C132.097 69.3433 133.966 68.8408 135.428 69.6876ZM190.653 69.2762C192.783 69.2762 194.511 71.009 194.511 73.1464V86.047C194.511 88.1845 192.783 89.9172 190.653 89.9172H177.792C175.662 89.9172 173.934 88.1845 173.934 86.047V73.1464C173.934 71.009 175.662 69.2762 177.792 69.2762H190.653ZM53.1319 119.985C54.5196 119.985 55.6445 121.113 55.6445 122.505V130.907C55.6445 132.299 54.5196 133.428 53.1319 133.428H44.7564C43.3687 133.428 42.2438 132.299 42.2438 130.907V122.505C42.2438 121.113 43.3687 119.985 44.7564 119.985H53.1319ZM48.5915 101.404C52.4868 101.404 55.6445 104.572 55.6445 108.48C55.6445 112.387 52.4868 115.555 48.5915 115.555C44.6962 115.555 41.5385 112.387 41.5385 108.48C41.5385 104.572 44.6962 101.404 48.5915 101.404ZM49.9362 83.7993C50.2379 83.9746 50.4884 84.2266 50.6625 84.5302L56.0836 93.9789C56.6316 94.934 56.3064 96.1553 55.3573 96.7067C55.0556 96.882 54.7134 96.9743 54.365 96.9743H43.5229C42.4269 96.9743 41.5385 96.0802 41.5385 94.9773C41.5385 94.6268 41.6302 94.2824 41.8043 93.9789L47.2254 84.5302C47.7734 83.5751 48.987 83.2479 49.9362 83.7993Z" fill="#D1D292"/>
  </g>
  <defs>
  <clipPath id="clip0_97_5592">
  <rect width="270" height="159" fill="white"/>
  </clipPath>
  </defs>
  </svg>