<svg xmlns="http://www.w3.org/2000/svg" width="41" height="42" viewBox="0 0 41 42" fill="none">
    <g clip-path="url(#clip0_97_5656)">
      <path d="M37.0517 0.403564C38.9562 0.403564 40.5 1.98506 40.5 3.93594V37.8468C40.5 39.7977 38.9562 41.3792 37.0517 41.3792H24.6379C22.7335 41.3792 21.1897 39.7977 21.1897 37.8468V3.93594C21.1897 1.98506 22.7335 0.403564 24.6379 0.403564H37.0517ZM16.3621 21.5978C18.2665 21.5978 19.8103 23.1793 19.8103 25.1302V37.8468C19.8103 39.7977 18.2665 41.3792 16.3621 41.3792H3.94828C2.04385 41.3792 0.5 39.7977 0.5 37.8468V25.1302C0.5 23.1793 2.04385 21.5978 3.94828 21.5978H16.3621ZM37.0517 1.81652H24.6379C23.4953 1.81652 22.569 2.76542 22.569 3.93594V37.8468C22.569 39.0173 23.4953 39.9662 24.6379 39.9662H37.0517C38.1944 39.9662 39.1207 39.0173 39.1207 37.8468V3.93594C39.1207 2.76542 38.1944 1.81652 37.0517 1.81652ZM16.3621 23.0108H3.94828C2.80562 23.0108 1.87931 23.9597 1.87931 25.1302V37.8468C1.87931 39.0173 2.80562 39.9662 3.94828 39.9662H16.3621C17.5047 39.9662 18.431 39.0173 18.431 37.8468V25.1302C18.431 23.9597 17.5047 23.0108 16.3621 23.0108ZM10.1552 26.5432C12.8214 26.5432 14.9828 28.7573 14.9828 31.4885C14.9828 34.2197 12.8214 36.4338 10.1552 36.4338C7.48897 36.4338 5.32759 34.2197 5.32759 31.4885C5.32759 28.7573 7.48897 26.5432 10.1552 26.5432ZM9.15113 29.3691C8.9495 29.3691 8.78604 29.5365 8.78604 29.7431V33.2339C8.78604 33.2995 8.80291 33.364 8.83495 33.4209C8.93577 33.5998 9.15906 33.661 9.33368 33.5578L12.2848 31.8124C12.3403 31.7795 12.3864 31.7323 12.4185 31.6755C12.5193 31.4966 12.4594 31.2679 12.2848 31.1646L9.33368 29.4192C9.27818 29.3864 9.21522 29.3691 9.15113 29.3691ZM32.713 18.4724C34.6536 18.4724 36.2267 20.0839 36.2267 22.0718C36.2267 24.0597 34.6536 25.6712 32.713 25.6712C31.0131 25.6712 29.5951 24.4346 29.2695 22.7917L32.1847 22.7917C32.307 22.7917 32.4272 22.7587 32.5332 22.696C32.8665 22.4989 32.9807 22.0623 32.7883 21.7208L31.1645 18.8398C31.6317 18.6045 32.1573 18.4724 32.713 18.4724ZM29.2807 15.6886C29.3866 15.7512 29.4746 15.8414 29.5358 15.9499L31.1645 18.8398C30.0004 19.4262 29.1992 20.6532 29.1992 22.0718C29.1992 22.3183 29.2234 22.5591 29.2695 22.7917H25.6797C25.2948 22.7917 24.9828 22.472 24.9828 22.0778C24.9828 21.9524 25.015 21.8293 25.0761 21.7208L28.3286 15.9499C28.5211 15.6084 28.9473 15.4914 29.2807 15.6886ZM16.3621 0.403564C18.2665 0.403564 19.8103 1.98506 19.8103 3.93594V16.6525C19.8103 18.6034 18.2665 20.1849 16.3621 20.1849H3.94828C2.04385 20.1849 0.5 18.6034 0.5 16.6525V3.93594C0.5 1.98506 2.04385 0.403564 3.94828 0.403564H16.3621ZM16.3621 1.81652H3.94828C2.80562 1.81652 1.87931 2.76542 1.87931 3.93594V16.6525C1.87931 17.823 2.80562 18.7719 3.94828 18.7719H16.3621C17.5047 18.7719 18.431 17.823 18.431 16.6525V3.93594C18.431 2.76542 17.5047 1.81652 16.3621 1.81652ZM12.2241 13.1201C12.605 13.1201 12.9138 13.4364 12.9138 13.8266C12.9138 14.2168 12.605 14.5331 12.2241 14.5331H5.32759C4.9467 14.5331 4.63793 14.2168 4.63793 13.8266C4.63793 13.4364 4.9467 13.1201 5.32759 13.1201H12.2241ZM14.9828 10.2942C15.3636 10.2942 15.6724 10.6105 15.6724 11.0007C15.6724 11.3909 15.3636 11.7072 14.9828 11.7072H5.32759C4.9467 11.7072 4.63793 11.3909 4.63793 11.0007C4.63793 10.6105 4.9467 10.2942 5.32759 10.2942H14.9828ZM12.2241 7.46832C12.605 7.46832 12.9138 7.78462 12.9138 8.1748C12.9138 8.56498 12.605 8.88128 12.2241 8.88128H5.32759C4.9467 8.88128 4.63793 8.56498 4.63793 8.1748C4.63793 7.78462 4.9467 7.46832 5.32759 7.46832H12.2241ZM14.9828 4.64242C15.3636 4.64242 15.6724 4.95872 15.6724 5.3489C15.6724 5.73907 15.3636 6.05537 14.9828 6.05537H5.32759C4.9467 6.05537 4.63793 5.73907 4.63793 5.3489C4.63793 4.95872 4.9467 4.64242 5.32759 4.64242H14.9828Z" fill="#096634"/>
    </g>
    <defs>
      <clipPath id="clip0_97_5656">
        <rect width="41" height="42" fill="white"/>
      </clipPath>
    </defs>
  </svg>