<svg xmlns="http://www.w3.org/2000/svg" width="124" height="124" viewBox="0 0 124 124" fill="none">
    <path d="M96.9163 1.08772H27.583C13.2236 1.08772 1.58301 12.7754 1.58301 27.193V96.807C1.58301 111.225 13.2236 122.912 27.583 122.912H96.9163C111.276 122.912 122.916 111.225 122.916 96.807V27.193C122.916 12.7754 111.276 1.08772 96.9163 1.08772Z" stroke="#B4B4B4" stroke-width="2"/>
    <path d="M35.1663 104.421C44.7393 104.421 52.4997 96.6292 52.4997 87.0175C52.4997 77.4058 44.7393 69.614 35.1663 69.614C25.5934 69.614 17.833 77.4058 17.833 87.0175C17.833 96.6292 25.5934 104.421 35.1663 104.421Z" stroke="#D1D292" stroke-width="2"/>
    <path d="M42.7047 88.1664L32.024 94.3578C31.392 94.7242 30.5839 94.5068 30.219 93.8722C30.103 93.6705 30.042 93.4418 30.042 93.2089V80.826C30.042 80.0933 30.6336 79.4993 31.3633 79.4993C31.5953 79.4993 31.8231 79.5606 32.024 79.6771L42.7047 85.8685C43.3366 86.2349 43.5532 87.0462 43.1883 87.6808C43.0723 87.8824 42.9055 88.0499 42.7047 88.1664V88.1664Z" stroke="#D1D292" stroke-width="2"/>
    <path d="M84.4385 70.1773V103.858C84.4385 104.77 85.1747 105.509 86.0828 105.509C86.991 105.509 87.7272 104.77 87.7272 103.858V70.1773C87.7272 69.2655 86.991 68.5263 86.0828 68.5263C85.1747 68.5263 84.4385 69.2655 84.4385 70.1773Z" fill="#096634"/>
    <path d="M90.0291 76.7813V97.2538C90.0291 98.1656 90.7653 98.9048 91.6735 98.9048C92.5816 98.9048 93.3178 98.1656 93.3178 97.2538V76.7813C93.3178 75.8695 92.5816 75.1303 91.6735 75.1303C90.7653 75.1303 90.0291 75.8695 90.0291 76.7813ZM73.2568 76.7813V97.2538C73.2568 98.1656 73.993 98.9048 74.9012 98.9048C75.8093 98.9048 76.5455 98.1656 76.5455 97.2538V76.7813C76.5455 75.8695 75.8093 75.1303 74.9012 75.1303C73.993 75.1303 73.2568 75.8695 73.2568 76.7813Z" fill="white"/>
    <path d="M67.666 81.7343V92.3007C67.666 93.2126 68.4022 93.9517 69.3104 93.9517C70.2185 93.9517 70.9547 93.2126 70.9547 92.3007V81.7343C70.9547 80.8225 70.2185 80.0833 69.3104 80.0833C68.4022 80.0833 67.666 80.8225 67.666 81.7343Z" fill="#096634"/>
    <path d="M78.8477 81.7343V92.3007C78.8477 93.2126 79.5839 93.9517 80.492 93.9517C81.4002 93.9517 82.1363 93.2126 82.1363 92.3007V81.7343C82.1363 80.8225 81.4002 80.0833 80.492 80.0833C79.5839 80.0833 78.8477 80.8225 78.8477 81.7343ZM95.62 84.3759V89.6591C95.62 90.571 96.3562 91.3101 97.2643 91.3101C98.1725 91.3101 98.9087 90.571 98.9087 89.6591V84.3759C98.9087 83.4641 98.1725 82.7249 97.2643 82.7249C96.3562 82.7249 95.62 83.4641 95.62 84.3759Z" fill="white"/>
    <path d="M101.211 86.6873V87.0175C101.211 87.9294 101.947 88.6685 102.855 88.6685C103.763 88.6685 104.5 87.9294 104.5 87.0175V86.6873C104.5 85.7755 103.763 85.0363 102.855 85.0363C101.947 85.0363 101.211 85.7755 101.211 86.6873Z" fill="#096634"/>
    <path d="M93.2151 28.3293C100.173 28.3293 105.813 33.8352 105.813 40.627C105.813 47.4188 100.173 52.9247 93.2151 52.9247C87.1203 52.9247 82.0364 48.6998 80.8691 43.0866L91.321 43.0865C91.7597 43.0865 92.1905 42.9738 92.5704 42.7597C93.7655 42.0862 94.175 40.5944 93.485 39.4278L87.6633 29.5848C89.3382 28.7809 91.2226 28.3293 93.2151 28.3293V28.3293Z" stroke="#B80000" stroke-width="2"/>
    <path d="M80.9095 18.8184C81.2894 19.0325 81.6048 19.3404 81.8241 19.7112L87.6638 29.5848C83.49 31.5883 80.6176 35.7802 80.6176 40.627C80.6176 41.4693 80.7044 42.2919 80.8696 43.0866H67.9987C66.6187 43.0866 65.5 41.9945 65.5 40.6474C65.5 40.2192 65.6155 39.7986 65.8348 39.4278L77.4962 19.7112C78.1862 18.5446 79.7144 18.1449 80.9095 18.8184Z" stroke="#B80000" stroke-width="2"/>
    <path d="M87.6633 29.5848L93.4851 39.4278C94.1751 40.5944 93.7656 42.0862 92.5705 42.7597C92.1906 42.9738 91.7597 43.0865 91.3211 43.0865L80.8692 43.0867C80.7039 42.2919 80.6172 41.4694 80.6172 40.627C80.6172 35.7802 83.4896 31.5883 87.6633 29.5848Z" fill="#1C1C1E" stroke="#B80000" stroke-width="2"/>
    <path d="M19.9997 20.6667H26.4997C27.6963 20.6667 28.6663 21.6406 28.6663 22.8421C28.6663 24.0436 27.6963 25.0175 26.4997 25.0175H19.9997C18.8031 25.0175 17.833 24.0436 17.833 22.8421C17.833 21.6406 18.8031 20.6667 19.9997 20.6667ZM32.9997 20.6667H50.333C51.5296 20.6667 52.4997 21.6406 52.4997 22.8421C52.4997 24.0436 51.5296 25.0175 50.333 25.0175H32.9997C31.8031 25.0175 30.833 24.0436 30.833 22.8421C30.833 21.6406 31.8031 20.6667 32.9997 20.6667Z" fill="#096634"/>
    <path d="M41.6663 29.3684H19.9997C18.8031 29.3684 17.833 30.3424 17.833 31.5439C17.833 32.7453 18.8031 33.7193 19.9997 33.7193H41.6663C42.863 33.7193 43.833 32.7453 43.833 31.5439C43.833 30.3424 42.863 29.3684 41.6663 29.3684Z" fill="white"/>
    <path d="M41.6663 46.7719H19.9997C18.8031 46.7719 17.833 47.7459 17.833 48.9474C17.833 50.1488 18.8031 51.1228 19.9997 51.1228H41.6663C42.863 51.1228 43.833 50.1488 43.833 48.9474C43.833 47.7459 42.863 46.7719 41.6663 46.7719Z" fill="white"/>
    <path d="M50.333 38.0702H19.9997C18.8031 38.0702 17.833 39.0442 17.833 40.2456C17.833 41.4471 18.8031 42.4211 19.9997 42.4211H50.333C51.5296 42.4211 52.4997 41.4471 52.4997 40.2456C52.4997 39.0442 51.5296 38.0702 50.333 38.0702Z" fill="#096634"/>
  </svg>