<svg xmlns="http://www.w3.org/2000/svg" width="41" height="42" viewBox="0 0 41 42" fill="none">
    <g clip-path="url(#clip0_97_5668)">
      <path d="M24.6426 32.9206H13.5952C13.2139 32.9206 12.9048 32.6039 12.9048 32.2133C12.9048 31.8226 13.2139 31.506 13.5952 31.506H17.0468V27.2615L2.9576 27.2622C1.62874 27.2622 0.548315 26.1793 0.479993 24.8226L0.476562 24.686V2.96104C0.476562 1.587 1.51412 0.459763 2.82557 0.388467L2.9576 0.384888H35.2802C36.6091 0.384888 37.6895 1.4678 37.7578 2.82449L37.7612 2.96104V17.36H38.4517C39.5957 17.36 40.5231 18.31 40.5231 19.4819V39.2863C40.5231 40.4581 39.5957 41.4081 38.4517 41.4081H28.7853C27.6413 41.4081 26.7139 40.4581 26.7139 39.2863V27.2615H21.1896V31.506H24.6426C24.9967 31.506 25.2885 31.779 25.3284 32.1308L25.333 32.2133C25.333 32.6039 25.0239 32.9206 24.6426 32.9206ZM38.4517 18.7746H28.7853C28.404 18.7746 28.0948 19.0913 28.0948 19.4819V39.2863C28.0948 39.6769 28.404 39.9935 28.7853 39.9935H38.4517C38.833 39.9935 39.1422 39.6769 39.1422 39.2863V19.4819C39.1422 19.0913 38.833 18.7746 38.4517 18.7746ZM19.8087 27.2615H18.4278V31.506H19.8087V27.2615ZM35.2802 1.79948H2.9576C2.38653 1.79948 1.91286 2.26074 1.862 2.85488L1.85748 2.96104V24.686C1.85748 25.2947 2.29941 25.7897 2.85789 25.8429L2.95758 25.8476L26.7139 25.8469V19.4819C26.7139 18.31 27.6413 17.36 28.7853 17.36H36.3803V2.96104C36.3803 2.3524 35.9384 1.85733 35.3799 1.8042L35.2802 1.79948ZM24.6426 21.6038C25.0239 21.6038 25.333 21.9205 25.333 22.3111C25.333 22.6738 25.0665 22.9728 24.7231 23.0136L24.6426 23.0184H5.30976C4.92843 23.0184 4.6193 22.7017 4.6193 22.3111C4.6193 21.9484 4.88585 21.6494 5.22924 21.6086L5.30976 21.6038H24.6426ZM34.9994 20.8965C35.3807 20.8965 35.6899 21.2132 35.6899 21.6038C35.6899 21.9665 35.4233 22.2655 35.0799 22.3064L34.9994 22.3111H32.2376C31.8563 22.3111 31.5471 21.9944 31.5471 21.6038C31.5471 21.2411 31.8137 20.9421 32.1571 20.9013L32.2376 20.8965H34.9994Z" fill="#B80000"/>
    </g>
    <defs>
      <clipPath id="clip0_97_5668">
        <rect width="41" height="42" fill="white"/>
      </clipPath>
    </defs>
  </svg>