<svg xmlns="http://www.w3.org/2000/svg" width="33" height="42" viewBox="0 0 33 42" fill="none">
    <g clip-path="url(#clip0_97_5692)">
      <path d="M18.1735 3.11111C19.2655 3.11111 20.3158 3.64888 21.1066 4.61301L25.4812 9.94627C26.3241 10.9739 26.8012 12.3988 26.8012 13.8888V36.5556C26.8012 39.5624 24.897 42 22.5481 42H7.96599C5.61707 42 3.71289 39.5624 3.71289 36.5556V8.55556C3.71289 5.54867 5.61707 3.11111 7.96599 3.11111H18.1735ZM18.1735 4.66667H7.96599C6.28819 4.66667 4.92806 6.40778 4.92806 8.55556V36.5556C4.92806 38.7033 6.28819 40.4444 7.96599 40.4444H22.5481C24.2259 40.4444 25.586 38.7033 25.586 36.5556V13.8888C25.586 12.8245 25.2452 11.8067 24.6432 11.0727L20.2686 5.73945C19.7037 5.05079 18.9535 4.66667 18.1735 4.66667ZM19.3 0C20.2979 0 21.2616 0.449058 22.0244 1.26371L22.1848 1.44385L27.8681 8.15956C28.6827 9.12208 29.1693 10.4508 29.23 11.8604L29.2364 12.1433L29.2879 33.442C29.2889 33.8716 29.0177 34.2209 28.6822 34.2222C28.3746 34.2234 28.1197 33.9318 28.0785 33.5524L28.0727 33.4468L28.0213 12.1481C28.0188 11.1442 27.7133 10.1835 27.1728 9.4642L27.0439 9.30258L21.3605 2.58688C20.8461 1.97903 20.1851 1.61897 19.4902 1.56318L19.3 1.55556H11.0039C10.6684 1.55556 10.3963 1.20733 10.3963 0.777778C10.3963 0.384019 10.6249 0.058602 10.9215 0.00710019L11.0039 0H19.3ZM17.654 22.1158C19.9336 22.1158 21.7815 24.4813 21.7815 27.3994C21.7815 30.3175 19.9336 32.683 17.654 32.683C15.6572 32.683 13.9916 30.8679 13.6091 28.4562L17.0335 28.4561C17.1772 28.4561 17.3183 28.4077 17.4428 28.3157C17.8343 28.0263 17.9685 27.3854 17.7424 26.8842L15.8351 22.6552C16.3838 22.3098 17.0012 22.1158 17.654 22.1158ZM13.6222 18.0295C13.7466 18.1214 13.85 18.2537 13.9218 18.4131L15.8351 22.6552C14.4676 23.516 13.5265 25.317 13.5265 27.3994C13.5265 27.7613 13.555 28.1147 13.6091 28.4562H9.39224C8.9401 28.4562 8.57358 27.9869 8.57358 27.4082C8.57358 27.2242 8.61141 27.0435 8.68326 26.8842L12.5039 18.4131C12.7299 17.9118 13.2306 17.7401 13.6222 18.0295ZM18.3625 6.22222C18.6701 6.22222 18.9243 6.51483 18.9645 6.89446L18.9701 7V11.9359C18.9701 12.37 19.2478 12.7419 19.6182 12.7965L19.7127 12.8034H23.7632C24.0988 12.8034 24.3708 13.1516 24.3708 13.5812C24.3708 13.975 24.1422 14.3004 23.8457 14.3519L23.7632 14.359H19.7127C18.6827 14.359 17.8288 13.3707 17.7594 12.1028L17.7549 11.9359V7C17.7549 6.57044 18.0269 6.22222 18.3625 6.22222Z" fill="#D1D292"/>
    </g>
    <defs>
      <clipPath id="clip0_97_5692">
        <rect width="33" height="42" fill="white"/>
      </clipPath>
    </defs>
  </svg>