<svg xmlns="http://www.w3.org/2000/svg" width="416" height="124" viewBox="0 0 416 124" fill="none">
  <g clip-path="url(#clip0_97_5518)">
  <path d="M96.4163 1.08772H27.083C12.7236 1.08772 1.08301 12.7754 1.08301 27.193V96.807C1.08301 111.225 12.7236 122.912 27.083 122.912H96.4163C110.776 122.912 122.416 111.225 122.416 96.807V27.193C122.416 12.7754 110.776 1.08772 96.4163 1.08772Z" stroke="#B4B4B4" stroke-width="2"/>
  <path d="M85.4321 104.421C95.6868 104.421 104 96.0743 104 85.778C104 75.4818 95.6868 67.135 85.4321 67.135C75.1774 67.135 66.8643 75.4818 66.8643 85.778C66.8643 96.0743 75.1774 104.421 85.4321 104.421Z" stroke="white" stroke-width="2"/>
  <path d="M75.6064 75.9127H95.1064V95.4916H75.6064V75.9127Z" fill="white"/>
  <path d="M38.0678 104.421C48.3226 104.421 56.6357 96.0743 56.6357 85.778C56.6357 75.4818 48.3226 67.135 38.0678 67.135C27.8131 67.135 19.5 75.4818 19.5 85.778C19.5 96.0743 27.8131 104.421 38.0678 104.421Z" fill="#B80000" stroke="black" stroke-opacity="0.15" stroke-width="2"/>
  <path d="M38.0678 56.865C48.3226 56.865 56.6357 48.5182 56.6357 38.222C56.6357 27.9257 48.3226 19.5789 38.0678 19.5789C27.8131 19.5789 19.5 27.9257 19.5 38.222C19.5 48.5182 27.8131 56.865 38.0678 56.865Z" fill="#D1D292" stroke="black" stroke-opacity="0.15" stroke-width="2"/>
  <path d="M85.4321 56.865C95.6868 56.865 104 48.5182 104 38.222C104 27.9257 95.6868 19.5789 85.4321 19.5789C75.1774 19.5789 66.8643 27.9257 66.8643 38.222C66.8643 48.5182 75.1774 56.865 85.4321 56.865Z" fill="#096634" stroke="black" stroke-opacity="0.15" stroke-width="2"/>
  <path d="M242.666 1.08772H173.333C158.974 1.08772 147.333 12.7754 147.333 27.193V96.807C147.333 111.225 158.974 122.912 173.333 122.912H242.666C257.026 122.912 268.666 111.225 268.666 96.807V27.193C268.666 12.7754 257.026 1.08772 242.666 1.08772Z" stroke="#B4B4B4" stroke-width="2"/>
  <path d="M165.208 81.5789H212.875M234.541 81.5789H250.791H234.541Z" stroke="#B4B4B4" stroke-width="2" stroke-linecap="round"/>
  <path d="M223.708 88.1053C220.118 88.1053 217.208 85.1833 217.208 81.5789C217.208 77.9746 220.118 75.0526 223.708 75.0526C227.298 75.0526 230.208 77.9746 230.208 81.5789C230.208 85.1833 227.298 88.1053 223.708 88.1053Z" fill="#B4B4B4"/>
  <path d="M250.791 98.9825H203.124M181.458 98.9825H165.208H181.458Z" stroke="#B4B4B4" stroke-width="2" stroke-linecap="round"/>
  <path d="M192.291 105.509C195.881 105.509 198.791 102.587 198.791 98.9825C198.791 95.3781 195.881 92.4561 192.291 92.4561C188.701 92.4561 185.791 95.3781 185.791 98.9825C185.791 102.587 188.701 105.509 192.291 105.509Z" fill="#B4B4B4"/>
  <path d="M176.158 50.976C173.544 50.976 171.842 49.7133 171.842 47.7078C171.842 45.7022 173.445 44.5137 176.453 44.3157L182.15 43.9195V45.9251C182.15 48.8962 179.487 50.976 176.158 50.976ZM173.815 56.2499C177.292 56.2499 180.646 54.5662 182.125 51.7188H182.273V55.928H189.227V37.2344C189.227 31.7872 184.665 28.1971 177.686 28.1971C170.905 28.1971 166.22 31.7872 166.022 36.9868H172.607C172.952 35.006 174.777 33.6194 177.391 33.6194C180.35 33.6194 182.15 35.0555 182.15 37.68V39.4875L175.368 39.9084C168.439 40.3293 164.666 43.1272 164.666 48.0792C164.666 52.9568 168.587 56.2499 173.815 56.2499ZM210.934 56.2499C217.765 56.2499 221.982 50.9513 221.982 42.2854C221.982 33.6194 217.765 28.3456 210.909 28.3456C207.038 28.3456 204.029 30.1778 202.525 33.3223H202.377V18.4912H195.176V55.928H202.254V51.2732H202.402C203.906 54.4177 206.964 56.2499 210.934 56.2499H210.934ZM208.493 34.1889C212.192 34.1889 214.608 37.3582 214.608 42.2854C214.608 47.2373 212.216 50.4066 208.493 50.4066C204.794 50.4066 202.352 47.1878 202.328 42.3101C202.352 37.4325 204.794 34.1889 208.493 34.1889ZM251.308 38.72H244.601C244.206 35.8973 242.233 33.8918 239.101 33.8918C235.402 33.8918 233.06 37.0611 233.06 42.2854C233.06 47.6087 235.402 50.6789 239.126 50.6789C242.159 50.6789 244.157 49.02 244.625 46.0241H251.333C250.913 52.3626 246.179 56.3984 239.052 56.3984C230.939 56.3984 225.76 51.0503 225.76 42.2854C225.76 33.6442 230.939 28.1971 239.003 28.1971C246.302 28.1971 250.963 32.6538 251.308 38.72Z" fill="white"/>
  <path d="M388.916 1.08772H319.583C305.224 1.08772 293.583 12.7754 293.583 27.193V96.807C293.583 111.225 305.224 122.912 319.583 122.912H388.916C403.276 122.912 414.916 111.225 414.916 96.807V27.193C414.916 12.7754 403.276 1.08772 388.916 1.08772Z" stroke="#B4B4B4" stroke-width="2"/>
  <path d="M327.166 104.421C336.739 104.421 344.5 96.6292 344.5 87.0175C344.5 77.4058 336.739 69.614 327.166 69.614C317.593 69.614 309.833 77.4058 309.833 87.0175C309.833 96.6292 317.593 104.421 327.166 104.421Z" stroke="#D1D292" stroke-width="2"/>
  <path d="M334.705 88.1664L324.024 94.3578C323.392 94.7242 322.584 94.5068 322.219 93.8722C322.103 93.6705 322.042 93.4418 322.042 93.2089V80.826C322.042 80.0933 322.634 79.4993 323.363 79.4993C323.595 79.4993 323.823 79.5606 324.024 79.6771L334.705 85.8685C335.337 86.2349 335.553 87.0462 335.188 87.6808C335.072 87.8824 334.906 88.0499 334.705 88.1664V88.1664Z" stroke="#D1D292" stroke-width="2"/>
  <path d="M376.438 70.1773V103.858C376.438 104.77 377.175 105.509 378.083 105.509C378.991 105.509 379.727 104.77 379.727 103.858V70.1773C379.727 69.2655 378.991 68.5263 378.083 68.5263C377.175 68.5263 376.438 69.2655 376.438 70.1773Z" fill="#096634"/>
  <path d="M382.029 76.7813V97.2538C382.029 98.1656 382.765 98.9048 383.673 98.9048C384.582 98.9048 385.318 98.1656 385.318 97.2538V76.7813C385.318 75.8695 384.582 75.1303 383.673 75.1303C382.765 75.1303 382.029 75.8695 382.029 76.7813ZM365.257 76.7813V97.2538C365.257 98.1656 365.993 98.9048 366.901 98.9048C367.809 98.9048 368.546 98.1656 368.546 97.2538V76.7813C368.546 75.8695 367.809 75.1303 366.901 75.1303C365.993 75.1303 365.257 75.8695 365.257 76.7813Z" fill="white"/>
  <path d="M359.666 81.7343V92.3007C359.666 93.2126 360.402 93.9517 361.31 93.9517C362.219 93.9517 362.955 93.2126 362.955 92.3007V81.7343C362.955 80.8225 362.219 80.0833 361.31 80.0833C360.402 80.0833 359.666 80.8225 359.666 81.7343Z" fill="#096634"/>
  <path d="M370.848 81.7343V92.3007C370.848 93.2126 371.584 93.9517 372.492 93.9517C373.4 93.9517 374.136 93.2126 374.136 92.3007V81.7343C374.136 80.8225 373.4 80.0833 372.492 80.0833C371.584 80.0833 370.848 80.8225 370.848 81.7343ZM387.62 84.3759V89.6591C387.62 90.571 388.356 91.3101 389.264 91.3101C390.172 91.3101 390.909 90.571 390.909 89.6591V84.3759C390.909 83.4641 390.172 82.7249 389.264 82.7249C388.356 82.7249 387.62 83.4641 387.62 84.3759Z" fill="white"/>
  <path d="M393.211 86.6873V87.0175C393.211 87.9294 393.947 88.6685 394.855 88.6685C395.763 88.6685 396.5 87.9294 396.5 87.0175V86.6873C396.5 85.7755 395.763 85.0363 394.855 85.0363C393.947 85.0363 393.211 85.7755 393.211 86.6873Z" fill="#096634"/>
  <path d="M385.215 28.3293C392.173 28.3293 397.813 33.8352 397.813 40.627C397.813 47.4188 392.173 52.9247 385.215 52.9247C379.12 52.9247 374.036 48.6998 372.869 43.0866L383.321 43.0865C383.76 43.0865 384.191 42.9738 384.57 42.7597C385.766 42.0862 386.175 40.5944 385.485 39.4278L379.663 29.5848C381.338 28.7809 383.223 28.3293 385.215 28.3293V28.3293Z" stroke="#B80000" stroke-width="2"/>
  <path d="M372.91 18.8184C373.289 19.0325 373.605 19.3404 373.824 19.7112L379.664 29.5848C375.49 31.5883 372.618 35.7802 372.618 40.627C372.618 41.4693 372.704 42.2919 372.87 43.0866H359.999C358.619 43.0866 357.5 41.9945 357.5 40.6474C357.5 40.2192 357.615 39.7986 357.835 39.4278L369.496 19.7112C370.186 18.5446 371.714 18.1449 372.91 18.8184Z" stroke="#B80000" stroke-width="2"/>
  <path d="M379.663 29.5848L385.485 39.4278C386.175 40.5944 385.766 42.0862 384.57 42.7597C384.191 42.9738 383.76 43.0865 383.321 43.0865L372.869 43.0867C372.704 42.2919 372.617 41.4694 372.617 40.627C372.617 35.7802 375.49 31.5883 379.663 29.5848Z" fill="#1C1C1E" stroke="#B80000" stroke-width="2"/>
  <path d="M312 20.6667H318.5C319.696 20.6667 320.666 21.6406 320.666 22.8421C320.666 24.0436 319.696 25.0175 318.5 25.0175H312C310.803 25.0175 309.833 24.0436 309.833 22.8421C309.833 21.6406 310.803 20.6667 312 20.6667ZM325 20.6667H342.333C343.53 20.6667 344.5 21.6406 344.5 22.8421C344.5 24.0436 343.53 25.0175 342.333 25.0175H325C323.803 25.0175 322.833 24.0436 322.833 22.8421C322.833 21.6406 323.803 20.6667 325 20.6667Z" fill="#096634"/>
  <path d="M333.666 29.3684H312C310.803 29.3684 309.833 30.3424 309.833 31.5439C309.833 32.7453 310.803 33.7193 312 33.7193H333.666C334.863 33.7193 335.833 32.7453 335.833 31.5439C335.833 30.3424 334.863 29.3684 333.666 29.3684Z" fill="white"/>
  <path d="M333.666 46.7719H312C310.803 46.7719 309.833 47.7459 309.833 48.9474C309.833 50.1488 310.803 51.1228 312 51.1228H333.666C334.863 51.1228 335.833 50.1488 335.833 48.9474C335.833 47.7459 334.863 46.7719 333.666 46.7719Z" fill="white"/>
  <path d="M342.333 38.0702H312C310.803 38.0702 309.833 39.0442 309.833 40.2456C309.833 41.4471 310.803 42.4211 312 42.4211H342.333C343.53 42.4211 344.5 41.4471 344.5 40.2456C344.5 39.0442 343.53 38.0702 342.333 38.0702Z" fill="#096634"/>
  </g>
  <defs>
  <clipPath id="clip0_97_5518">
  <rect width="416" height="124" fill="white"/>
  </clipPath>
  </defs>
  </svg>