<svg xmlns="http://www.w3.org/2000/svg" width="38" height="42" viewBox="0 0 38 42" fill="none">
    <path d="M27.0025 20.2962C27.6559 20.2962 28.2056 20.8338 28.2809 21.5464L28.3777 22.4627C28.8899 22.6317 29.3839 22.8569 29.8532 23.1344L30.5119 22.5613C31.024 22.1158 31.759 22.1624 32.2211 22.6697L33.5217 24.0978C33.9837 24.6051 34.0262 25.412 33.6206 25.9742L33.0987 26.6983C33.3513 27.2134 33.5563 27.7557 33.7101 28.3179L34.5444 28.4242C35.1935 28.5068 35.6832 29.1104 35.6832 29.8279V31.8475C35.6832 32.565 35.1936 33.1685 34.5446 33.2512L33.7101 33.3575C33.5562 33.9199 33.3511 34.4623 33.0984 34.9776L33.6203 35.7009C34.0261 36.2633 33.9837 37.0703 33.5216 37.5776L32.221 39.0057C31.759 39.513 31.0241 39.5597 30.5121 39.1144L29.8527 38.5413C29.386 38.8172 28.8948 39.0414 28.3857 39.21L28.2832 40.1364C28.2047 40.8457 27.6564 41.3792 27.0056 41.3792H25.16C24.5093 41.3792 23.961 40.8459 23.8825 40.1368L23.7796 39.2099C23.2731 39.0421 22.7844 38.8193 22.3199 38.5453L21.6506 39.1212C21.1383 39.5619 20.407 39.5134 19.9468 39.0081L18.6418 37.5751C18.1817 37.0699 18.1374 36.2671 18.5386 35.7047L19.0631 34.969C18.8136 34.459 18.6108 33.9223 18.458 33.3662L17.6143 33.2537C16.9683 33.1676 16.4825 32.5654 16.4825 31.8509V29.8244C16.4825 29.1099 16.9682 28.5078 17.6139 28.4216L18.4581 28.3086C18.6109 27.7527 18.8137 27.2162 19.0631 26.7063L18.5388 25.9709C18.1375 25.4084 18.1817 24.6054 18.6419 24.1002L19.9469 22.6672C20.407 22.162 21.1382 22.1134 21.6503 22.5538L22.3204 23.1298C22.7873 22.8544 23.2787 22.6308 23.788 22.4627L23.8848 21.5466C23.9601 20.8339 24.5098 20.2962 25.1632 20.2962H27.0025ZM27.0025 21.7093H25.1632L24.9642 23.5925L24.5263 23.7072C23.8446 23.886 23.1958 24.1816 22.6009 24.5818L22.2199 24.838L21.8681 24.5356L20.8569 23.6664L19.5519 25.0994L20.6188 26.5961L20.3855 27.0144C20.0228 27.6644 19.7544 28.373 19.5914 29.1176L19.487 29.5945L19.0436 29.6538L17.7694 29.8244V31.8509L19.4868 32.08L19.5912 32.5571C19.7542 33.302 20.0227 34.0108 20.3855 34.661L20.6188 35.0793L20.3434 35.4656L19.5518 36.5759L20.8568 38.0089L22.2191 36.8367L22.6003 37.0932C23.1924 37.4916 23.838 37.7865 24.5163 37.9655L24.9506 38.0801L25.0047 38.567L25.16 39.966H27.0056L27.2142 38.0803L27.6488 37.9656C28.3303 37.7859 28.9787 37.4892 29.5731 37.088L29.9565 36.8293L30.3094 37.136L31.311 38.0065L32.6116 36.5784L31.539 35.0919L31.7748 34.6707C32.142 34.0148 32.4131 33.2991 32.5767 32.5468L32.6812 32.066L33.1285 32.009L34.3963 31.8475V29.8279L32.6812 29.6094L32.5767 29.1286C32.4132 28.3765 32.1422 27.661 31.7752 27.0053L31.5396 26.5843L31.8189 26.1968L32.6116 25.097L31.3111 23.669L29.9573 24.8467L29.5737 24.5877C28.9764 24.1846 28.3245 23.8868 27.6394 23.7072L27.2015 23.5925L27.1496 23.1014L27.0025 21.7093ZM22.2333 0.403564C24.6641 0.403564 26.6462 2.51814 26.7346 5.16528L26.7376 5.33495L26.7697 17.3044C26.7707 17.6946 26.4835 18.0119 26.1281 18.0131C25.7981 18.0141 25.5254 17.7422 25.4873 17.391L25.4827 17.3086L25.4507 5.33911C25.4456 3.44329 24.0813 1.89986 22.3726 1.81994L22.2333 1.81669H6.82176C5.09159 1.81669 3.6804 3.31623 3.60732 5.19625L3.60435 5.34949V32.1988C3.60435 34.0986 4.97001 35.6481 6.68219 35.7284L6.82176 35.7316H14.3339C14.6893 35.7316 14.9774 36.048 14.9774 36.4382C14.9774 36.8005 14.729 37.0992 14.4089 37.14L14.3339 37.1448H6.82176C4.38589 37.1448 2.40162 35.0217 2.31999 32.3689L2.31738 32.1988V5.34949C2.31738 2.67484 4.25091 0.496054 6.6669 0.406432L6.82176 0.403564H22.2333ZM26.0829 25.9928C28.5197 25.9928 30.4952 28.1619 30.4952 30.8377C30.4952 33.5135 28.5197 35.6826 26.0829 35.6826C23.646 35.6826 21.6705 33.5135 21.6705 30.8377C21.6705 28.1619 23.646 25.9928 26.0829 25.9928ZM26.0829 27.4059C24.3567 27.4059 22.9574 28.9424 22.9574 30.8377C22.9574 32.733 24.3567 34.2695 26.0829 34.2695C27.809 34.2695 29.2083 32.733 29.2083 30.8377C29.2083 28.9424 27.809 27.4059 26.0829 27.4059ZM13.2566 31.139C13.612 31.139 13.9001 31.4553 13.9001 31.8455C13.9001 32.2079 13.6517 32.5065 13.3316 32.5474L13.2566 32.5521H6.82176C6.46637 32.5521 6.17828 32.2358 6.17828 31.8455C6.17828 31.4832 6.42669 31.1846 6.74671 31.1437L6.82176 31.139H13.2566ZM13.2566 26.8996C13.612 26.8996 13.9001 27.216 13.9001 27.6062C13.9001 27.9685 13.6517 28.2672 13.3316 28.308L13.2566 28.3127H6.82176C6.46637 28.3127 6.17828 27.9964 6.17828 27.6062C6.17828 27.2438 6.42669 26.9452 6.74671 26.9044L6.82176 26.8996H13.2566ZM15.8305 22.6602C16.1859 22.6602 16.474 22.9766 16.474 23.3668C16.474 23.7292 16.2256 24.0278 15.9056 24.0686L15.8305 24.0734H6.82176C6.46637 24.0734 6.17828 23.757 6.17828 23.3668C6.17828 23.0045 6.42669 22.7058 6.74671 22.665L6.82176 22.6602H15.8305ZM18.4044 13.8282C20.1346 13.8282 21.5458 15.3278 21.6189 17.2078L21.6218 17.361V18.7742C21.6218 19.1644 21.3338 19.4807 20.9784 19.4807C20.6484 19.4807 20.3764 19.208 20.3392 18.8566L20.3349 18.7742V17.361C20.3349 16.2322 19.5312 15.3094 18.5179 15.245L18.4044 15.2414H10.6827C9.65457 15.2414 8.8142 16.1238 8.75548 17.2365L8.7522 17.361V18.7742C8.7522 19.1644 8.46411 19.4807 8.10872 19.4807C7.77872 19.4807 7.50674 19.208 7.46957 18.8566L7.46524 18.7742V17.361C7.46524 15.4613 8.83091 13.9117 10.5431 13.8315L10.6827 13.8282H18.4044ZM14.5435 3.93637C16.6759 3.93637 18.4044 5.8344 18.4044 8.17574C18.4044 10.5171 16.6759 12.4151 14.5435 12.4151C12.4112 12.4151 10.6827 10.5171 10.6827 8.17574C10.6827 5.8344 12.4112 3.93637 14.5435 3.93637ZM14.5435 5.34949C13.122 5.34949 11.9696 6.61485 11.9696 8.17574C11.9696 9.73663 13.122 11.002 14.5435 11.002C15.9651 11.002 17.1175 9.73663 17.1175 8.17574C17.1175 6.61485 15.9651 5.34949 14.5435 5.34949Z" fill="#B4B4B4"/>
  </svg>