<svg xmlns="http://www.w3.org/2000/svg" width="416" height="124" viewBox="0 0 416 124" fill="none">
    <g clip-path="url(#clip0_97_5607)">
    <path d="M66.1704 95.1754H40.9609C37.3711 95.1754 34.4609 92.2535 34.4609 88.6491V32.0877C34.4609 28.4833 37.3711 25.5614 40.9609 25.5614H79.8864C83.47 25.5614 86.3775 28.4735 86.3863 32.0716L86.4609 62.4768" stroke="#096634" stroke-width="2" stroke-linecap="round"/>
    <path d="M49.6279 60.3685V58.193C49.6279 55.7901 51.568 53.8422 53.9613 53.8422H66.9613C69.3545 53.8422 71.2946 55.7901 71.2946 58.193V60.3685" stroke="#B80000" stroke-width="2" stroke-linecap="round" stroke-linejoin="round"/>
    <path d="M60.4616 47.3158C63.4531 47.3158 65.8783 44.8808 65.8783 41.8772C65.8783 38.8735 63.4531 36.4386 60.4616 36.4386C57.47 36.4386 55.0449 38.8735 55.0449 41.8772C55.0449 44.8808 57.47 47.3158 60.4616 47.3158Z" stroke="#B80000" stroke-width="2"/>
    <path d="M45.2939 83.2106H58.2939M45.2939 76.6843H60.4606H45.2939ZM45.2939 70.158H66.9606H45.2939Z" stroke="#096634" stroke-width="2" stroke-linecap="round" stroke-linejoin="round"/>
    <path d="M88.1414 70.8695C88.6914 70.8695 89.1541 71.2833 89.2175 71.8318L89.4651 73.975C90.7449 74.2817 91.9473 74.789 93.0374 75.4618L94.7223 74.1214C95.1534 73.7785 95.7721 73.8143 96.161 74.2049L98.3506 76.4033C98.7395 76.7938 98.7753 77.4149 98.4338 77.8478L97.0993 79.5406C97.7691 80.6348 98.2741 81.8417 98.5795 83.1262L100.714 83.375C101.26 83.4386 101.672 83.9032 101.672 84.4555V87.5645C101.672 88.1168 101.26 88.5814 100.714 88.645L98.5795 88.8936C98.274 90.1786 97.7688 91.3858 97.0987 92.4803L98.4336 94.1721C98.7752 94.6049 98.7395 95.2261 98.3505 95.6167L96.1609 97.8151C95.772 98.2056 95.1534 98.2415 94.7223 97.8986L93.0363 96.5588C91.9514 97.2282 90.7554 97.7337 89.4825 98.0407L89.222 100.194C89.1559 100.74 88.6943 101.15 88.1465 101.15H85.0394C84.4917 101.15 84.0301 100.74 83.964 100.194L83.7025 98.0405C82.4356 97.7347 81.2448 97.2324 80.164 96.5675L78.4629 97.9059C78.0317 98.2451 77.4162 98.2077 77.0288 97.8188L74.8317 95.6128C74.4444 95.2239 74.4071 94.606 74.7449 94.173L76.0774 92.464C75.4153 91.3788 74.9152 90.1832 74.6108 88.9111L72.4664 88.6495C71.9226 88.5832 71.5137 88.1197 71.5137 87.5697V84.45C71.5137 83.9001 71.9225 83.4366 72.4663 83.3702L74.611 83.1077C74.9155 81.836 75.4155 80.6408 76.0774 79.5559L74.7451 77.8469C74.4073 77.4139 74.4445 76.7959 74.8318 76.407L77.0289 74.201C77.4162 73.8121 78.0317 73.7747 78.4629 74.1138L80.1651 75.4517C81.2508 74.7839 82.4475 74.2802 83.721 73.975L83.9687 71.832C84.032 71.2834 84.4948 70.8695 85.0449 70.8695H88.1414V70.8695Z" stroke="#D1D292" stroke-width="2"/>
    <path d="M86.5932 92.3808C90.0975 92.3808 92.9383 89.5285 92.9383 86.01C92.9383 82.4915 90.0975 79.6392 86.5932 79.6392C83.0889 79.6392 80.248 82.4915 80.248 86.01C80.248 89.5285 83.0889 92.3808 86.5932 92.3808Z" stroke="#D1D292" stroke-width="2"/>
    <path d="M96.4163 1.08777H27.083C12.7236 1.08777 1.08301 12.7755 1.08301 27.193V96.8071C1.08301 111.225 12.7236 122.912 27.083 122.912H96.4163C110.776 122.912 122.416 111.225 122.416 96.8071V27.193C122.416 12.7755 110.776 1.08777 96.4163 1.08777Z" stroke="#B4B4B4" stroke-width="2"/>
    <path d="M242.666 1.08777H173.333C158.974 1.08777 147.333 12.7755 147.333 27.193V96.8071C147.333 111.225 158.974 122.912 173.333 122.912H242.666C257.026 122.912 268.666 111.225 268.666 96.8071V27.193C268.666 12.7755 257.026 1.08777 242.666 1.08777Z" stroke="#B4B4B4" stroke-width="2"/>
    <path d="M166.291 105.31H170.881C173.59 105.31 176.015 103.622 176.967 101.076L185.806 77.4167C186.646 75.1669 189.144 74.0272 191.385 74.8711C192.285 75.2103 193.048 75.8405 193.552 76.6626L202.24 90.8206C204.123 93.8893 208.127 94.8443 211.183 92.9536C212.182 92.3358 212.996 91.4582 213.538 90.4138L217.975 81.8673C219.995 77.9761 224.774 76.4659 228.65 78.4941C229.973 79.1869 231.075 80.2415 231.827 81.5361L236.223 89.1022C237.731 91.6967 241.048 92.5729 243.632 91.0593C243.687 91.0266 243.743 90.993 243.797 90.9583L249.708 87.2054" stroke="#B80000" stroke-width="2" stroke-linecap="round" stroke-linejoin="round"/>
    <path d="M168.24 32.1817C167.805 33.7067 167.572 35.3173 167.572 36.9826C167.572 46.5943 175.333 54.3861 184.906 54.3861C194.479 54.3861 202.239 46.5943 202.239 36.9826C202.239 27.3709 194.479 19.5791 184.906 19.5791C183.102 19.5791 181.363 19.8557 179.728 20.3689" stroke="#096634" stroke-width="2" stroke-linecap="round" stroke-linejoin="round"/>
    <path d="M177.139 45.3726V44.8495C177.139 42.4466 179.079 40.4987 181.472 40.4987H188.339C190.732 40.4987 192.672 42.4466 192.672 44.8495V45.3726" stroke="#096634" stroke-width="2" stroke-linecap="round" stroke-linejoin="round"/>
    <path d="M184.906 36.5995C187.587 36.5995 189.76 34.4174 189.76 31.7256C189.76 29.0338 187.587 26.8517 184.906 26.8517C182.225 26.8517 180.052 29.0338 180.052 31.7256C180.052 34.4174 182.225 36.5995 184.906 36.5995Z" stroke="#096634" stroke-width="2"/>
    <path d="M171.166 28.2808C173.858 28.2808 176.041 26.0894 176.041 23.3861C176.041 20.6828 173.858 18.4913 171.166 18.4913C168.474 18.4913 166.291 20.6828 166.291 23.3861C166.291 26.0894 168.474 28.2808 171.166 28.2808Z" fill="#096634"/>
    <path d="M220.191 31.3617H222.239V19.8658H220.199L217.208 21.969V23.9447L220.057 21.9371H220.191V31.3617ZM225.386 23.0148L225.381 23.2596H227.301V23.2277C227.301 22.0566 228.11 21.2679 229.308 21.2679C230.435 21.2679 231.26 22.0009 231.26 23.0126C231.26 23.7546 230.936 24.3172 229.69 25.6222L225.492 29.9357V31.3617H233.442V29.617H228.301V29.4816L230.697 27.0677C232.641 25.1397 233.268 24.12 233.268 22.8852C233.268 20.9652 231.633 19.579 229.372 19.579C227.101 19.579 225.491 20.9785 225.386 23.0148ZM237.036 31.529C237.79 31.529 238.306 30.9873 238.306 30.2703C238.306 29.5453 237.79 29.0115 237.036 29.0115C236.291 29.0115 235.767 29.5453 235.767 30.2703C235.767 30.9873 236.291 31.529 237.036 31.529ZM244.535 31.6485C242.162 31.6485 240.52 30.1986 240.425 28.175H242.345C242.472 29.2346 243.368 29.9357 244.551 29.9357C245.891 29.9357 246.804 29.0275 246.804 27.6572C246.804 26.279 245.884 25.3469 244.566 25.3469C243.622 25.3469 242.884 25.7691 242.464 26.4781H240.607L241.202 19.8658H248.097V21.6025H242.789L242.511 24.829H242.646C243.154 24.1439 243.963 23.7535 245.066 23.7535C247.24 23.7535 248.78 25.3548 248.78 27.6094C248.78 30.0074 247.074 31.6485 244.535 31.6485ZM240.093 48.9977H242.093C242.22 50.0254 243.236 50.6867 244.688 50.6867C246.036 50.6867 247.012 49.9936 247.012 49.0296C247.012 48.201 246.386 47.7151 244.918 47.3725L243.434 47.0299C241.355 46.5599 240.379 45.5242 240.379 43.8114C240.379 41.7241 242.077 40.3379 244.64 40.3379C247.044 40.3379 248.782 41.7241 248.877 43.6999H246.917C246.774 42.6881 245.886 42.0508 244.632 42.0508C243.315 42.0508 242.442 42.6881 242.442 43.668C242.442 44.4408 243.021 44.8949 244.442 45.2215L245.759 45.5242C248.084 46.05 249.059 47.022 249.059 48.7746C249.059 51.0133 247.338 52.4075 244.561 52.4075C241.934 52.4075 240.197 51.085 240.093 48.9977ZM222.013 40.6247V52.1207H224.06V48.3524H226.544C228.861 48.3524 230.479 46.7909 230.479 44.5125C230.479 42.1942 228.916 40.6247 226.631 40.6247H222.013ZM224.06 42.3455H226.092C227.568 42.3455 228.401 43.1024 228.401 44.5125C228.401 45.8827 227.544 46.6475 226.084 46.6475H224.06V42.3455ZM234.044 53.183H232.258L235.615 39.2811H237.432L234.044 53.183Z" fill="#D1D292"/>
    <path d="M388.916 1.08777H319.583C305.224 1.08777 293.583 12.7755 293.583 27.193V96.8071C293.583 111.225 305.224 122.912 319.583 122.912H388.916C403.276 122.912 414.916 111.225 414.916 96.8071V27.193C414.916 12.7755 403.276 1.08777 388.916 1.08777Z" stroke="#B4B4B4" stroke-width="2"/>
    <path d="M354.413 22.5409L360.279 31.5741C361.478 33.4218 363.527 34.536 365.724 34.536H386.75C392.135 34.536 396.5 38.9189 396.5 44.3255V94.6316C396.5 100.038 392.135 104.421 386.75 104.421H321.75C316.365 104.421 312 100.038 312 94.6316V29.3685C312 23.9619 316.365 19.579 321.75 19.579H348.968C351.165 19.579 353.213 20.6932 354.413 22.5409Z" stroke="#D1D292" stroke-width="2"/>
    <path d="M354.249 91.3684C367.412 91.3684 378.083 80.6547 378.083 67.4386C378.083 54.2225 367.412 43.5088 354.249 43.5088C341.087 43.5088 330.416 54.2225 330.416 67.4386C330.416 80.6547 341.087 91.3684 354.249 91.3684Z" fill="#096634" stroke="white"/>
    <path d="M354.25 62.3535C357.047 62.3535 359.314 64.6302 359.314 67.4386C359.314 70.247 357.047 72.5237 354.25 72.5237C351.453 72.5237 349.185 70.247 349.185 67.4386C349.185 64.6302 351.453 62.3535 354.25 62.3535ZM343.559 62.8434C343.775 62.9682 343.953 63.1477 344.078 63.3638L347.946 70.0917C348.337 70.7718 348.105 71.6414 347.428 72.0341C347.213 72.1589 346.969 72.2246 346.72 72.2246H338.983C338.2 72.2246 337.566 71.588 337.566 70.8027C337.566 70.5531 337.632 70.3079 337.756 70.0917L341.625 63.3638C342.016 62.6837 342.882 62.4507 343.559 62.8434ZM369.146 62.6526C370.133 62.6526 370.933 63.4562 370.933 64.4474V70.4298C370.933 71.421 370.133 72.2246 369.146 72.2246H363.187C362.2 72.2246 361.4 71.421 361.4 70.4298V64.4474C361.4 63.4562 362.2 62.6526 363.187 62.6526H369.146Z" fill="#096634"/>
    </g>
    <defs>
    <clipPath id="clip0_97_5607">
    <rect width="416" height="124" fill="white"/>
    </clipPath>
    </defs>
    </svg>