<svg xmlns="http://www.w3.org/2000/svg" width="312" height="179" viewBox="0 0 312 179" fill="none">
  <path d="M10.5192 -3.8147e-05C4.70959 -3.8147e-05 0 4.71221 0 10.5251V42.2934C0 48.1062 4.70959 52.8185 10.5192 52.8185L48.0831 52.8164L64.2384 64.1138C64.5905 64.3599 64.9974 64.516 65.4236 64.5685L65.7447 64.5882C67.0934 64.5882 68.2049 63.5724 68.3568 62.2638L68.3745 61.9569V10.5251C68.3745 4.71221 63.6649 -3.8147e-05 57.8554 -3.8147e-05H10.5192Z" fill="white"/>
  <path d="M40.8823 19.5535H13.9857C12.7973 19.5535 11.834 20.5174 11.834 21.7064C11.834 22.8955 12.7973 23.8594 13.9857 23.8594H40.8823C42.0706 23.8594 43.034 22.8955 43.034 21.7064C43.034 20.5174 42.0706 19.5535 40.8823 19.5535ZM52.7167 8.78878H13.9857C12.7973 8.78878 11.834 9.75268 11.834 10.9417C11.834 12.1308 12.7973 13.0947 13.9857 13.0947H52.7167C53.9051 13.0947 54.8685 12.1308 54.8685 10.9417C54.8685 9.75268 53.9051 8.78878 52.7167 8.78878Z" fill="black"/>
  <path d="M301.48 71.2765C307.29 71.2765 312 75.9887 312 81.8016V113.57C312 119.383 307.29 124.095 301.48 124.095L263.916 124.093L247.761 135.39C247.409 135.636 247.002 135.793 246.576 135.845L246.255 135.865C244.906 135.865 243.795 134.849 243.643 133.54L243.625 133.233V81.8016C243.625 75.9887 248.335 71.2765 254.144 71.2765H301.48Z" fill="black"/>
  <path d="M278.499 112.48C286.603 112.48 293.172 105.907 293.172 97.799C293.172 89.6907 286.603 83.1176 278.499 83.1176C270.396 83.1176 263.826 89.6907 263.826 97.799C263.826 105.907 270.396 112.48 278.499 112.48Z" stroke="white" stroke-width="2"/>
  <path d="M272.665 100.022C272.665 103.246 275.277 105.859 278.499 105.859C281.721 105.859 284.333 103.246 284.333 100.022" stroke="white" stroke-width="2" stroke-linecap="round"/>
  <path d="M284.334 95.6437C285.139 95.6437 285.792 94.9903 285.792 94.1843C285.792 93.3784 285.139 92.725 284.334 92.725C283.528 92.725 282.875 93.3784 282.875 94.1843C282.875 94.9903 283.528 95.6437 284.334 95.6437Z" fill="white"/>
  <path d="M272.666 95.6437C273.471 95.6437 274.124 94.9903 274.124 94.1843C274.124 93.3784 273.471 92.725 272.666 92.725C271.86 92.725 271.207 93.3784 271.207 94.1843C271.207 94.9903 271.86 95.6437 272.666 95.6437Z" fill="white"/>
  <path d="M165.722 108.962L220.518 137.061C225.958 139.851 225.958 144.374 220.518 147.164L165.722 175.263C160.282 178.052 151.461 178.052 146.02 175.263L91.2249 147.164C85.7844 144.374 85.7844 139.851 91.2249 137.061L146.02 108.962C151.461 106.173 160.282 106.173 165.722 108.962V108.962Z" stroke="#096634" stroke-width="3"/>
  <path d="M165.722 70.5964L220.518 98.695C225.958 101.485 225.958 106.008 220.518 108.798L165.722 136.897C160.282 139.686 151.461 139.686 146.02 136.897L91.2249 108.798C85.7844 106.008 85.7844 101.485 91.2249 98.695L146.02 70.5964C151.461 67.8066 160.282 67.8066 165.722 70.5964Z" stroke="#B80000" stroke-width="3" stroke-linecap="round" stroke-linejoin="round"/>
  <path d="M165.722 32.2304L220.518 60.3291C225.958 63.1189 225.958 67.6421 220.518 70.4319L165.722 98.5306C160.282 101.32 151.461 101.32 146.02 98.5306L91.2249 70.4319C85.7844 67.6421 85.7844 63.1189 91.2249 60.3291L146.02 32.2304C151.461 29.4406 160.282 29.4406 165.722 32.2304V32.2304Z" stroke="#D1D292" stroke-width="3"/>
  </svg>