<svg width="1408" height="881" viewBox="0 0 1408 881" fill="none" xmlns="http://www.w3.org/2000/svg">
<g clip-path="url(#clip0_97_5398)">
<path d="M0 0H1408V25H0V0Z" fill="#323235"/>
<rect x="13" y="6" width="14" height="14" fill="#242426"/>
<rect x="53" y="6" width="14" height="14" fill="#242426"/>
<rect x="33" y="6" width="14" height="14" fill="#242426"/>
<path d="M0 25H1408V881H0V25Z" fill="#1C1C1E"/>
<g clip-path="url(#clip1_97_5398)">
<path d="M1478.4 -17.7512V922.774H-70.4004V-17.7512H1478.4Z" fill="#242427"/>
<g opacity="0.1">
<path d="M23.4668 880.219H223.911C228.231 880.219 231.733 883.719 231.733 888.037V1160.67C231.733 1164.98 228.231 1168.48 223.911 1168.48H23.4668C19.1469 1168.48 15.6445 1164.98 15.6445 1160.67V888.037C15.6445 883.719 19.1469 880.219 23.4668 880.219Z" fill="black"/>
<path d="M718.702 880.219H920.054C924.393 880.219 927.911 883.719 927.911 888.037V1160.67C927.911 1164.98 924.393 1168.48 920.054 1168.48H718.702C714.363 1168.48 710.845 1164.98 710.845 1160.67V888.037C710.845 883.719 714.363 880.219 718.702 880.219Z" fill="black"/>
<path d="M951.378 880.219H1151.82C1156.14 880.219 1159.64 883.719 1159.64 888.037V1160.67C1159.64 1164.98 1156.14 1168.48 1151.82 1168.48H951.378C947.058 1168.48 943.556 1164.98 943.556 1160.67V888.037C943.556 883.719 947.058 880.219 951.378 880.219Z" fill="black"/>
<path d="M1184.09 880.219H1384.53C1388.85 880.219 1392.36 883.719 1392.36 888.037V1160.67C1392.36 1164.98 1388.85 1168.48 1384.53 1168.48H1184.09C1179.77 1168.48 1176.27 1164.98 1176.27 1160.67V888.037C1176.27 883.719 1179.77 880.219 1184.09 880.219Z" fill="black"/>
<path d="M487.911 880.219H688.356C692.675 880.219 696.178 883.719 696.178 888.037V1160.67C696.178 1164.98 692.675 1168.48 688.356 1168.48H487.911C483.591 1168.48 480.089 1164.98 480.089 1160.67V888.037C480.089 883.719 483.591 880.219 487.911 880.219Z" fill="black"/>
<g filter="url(#filter0_f_97_5398)">
<path d="M255.2 880.219H455.645C459.964 880.219 463.467 883.719 463.467 888.037V1160.67C463.467 1164.98 459.964 1168.48 455.645 1168.48H255.2C250.88 1168.48 247.378 1164.98 247.378 1160.67V888.037C247.378 883.719 250.88 880.219 255.2 880.219Z" fill="black"/>
</g>
</g>
<path d="M23.4472 41.0627H455.542C459.851 41.0627 463.345 44.5463 463.345 48.843V227.8C463.345 232.096 459.851 235.58 455.542 235.58H23.4472C19.1381 235.58 15.6445 232.096 15.6445 227.8V48.843C15.6445 44.5463 19.1381 41.0627 23.4472 41.0627Z" fill="#25E197"/>
<path d="M250.449 80.8218L305.207 175.607C308.448 181.216 306.524 188.388 300.913 191.625C299.128 192.655 297.105 193.196 295.046 193.196H185.529C179.049 193.196 173.796 187.946 173.796 181.47C173.796 179.412 174.338 177.39 175.367 175.607L230.126 80.8218C233.366 75.2128 240.542 73.2917 246.154 76.53C247.938 77.559 249.419 79.0394 250.449 80.8218Z" fill="white"/>
<path d="M951.138 251.459H1384.53C1388.85 251.459 1392.36 254.96 1392.36 259.279V856.568C1392.36 860.887 1388.85 864.388 1384.53 864.388H951.138C946.816 864.388 943.312 860.887 943.312 856.568V259.279C943.312 254.96 946.816 251.459 951.138 251.459Z" fill="#C4C4C8"/>
<path d="M1124.94 499.863H1211.96C1220.6 499.863 1227.6 506.863 1227.6 515.498V602.466C1227.6 611.101 1220.6 618.101 1211.96 618.101H1124.94C1116.3 618.101 1109.29 611.101 1109.29 602.466V515.498C1109.29 506.863 1116.3 499.863 1124.94 499.863Z" fill="white"/>
<g opacity="0.1">
<path d="M486.934 41.6118H1384.53C1388.85 41.6118 1392.36 45.112 1392.36 49.4292V229.228C1392.36 233.545 1388.85 237.046 1384.53 237.046H486.934C482.614 237.046 479.111 233.545 479.111 229.228V49.4292C479.111 45.112 482.614 41.6118 486.934 41.6118Z" fill="black"/>
</g>
<g opacity="0.1">
<path d="M23.4668 251.643H920.089C924.409 251.643 927.911 255.143 927.911 259.46V856.51C927.911 860.827 924.409 864.328 920.089 864.328H23.4668C19.1469 864.328 15.6445 860.827 15.6445 856.51V259.46C15.6445 255.143 19.1469 251.643 23.4668 251.643Z" fill="black"/>
</g>
<path d="M23.4668 251.337H920.089C924.409 251.337 927.911 254.837 927.911 259.154V856.204C927.911 860.522 924.409 864.022 920.089 864.022H23.4668C19.1469 864.022 15.6445 860.522 15.6445 856.204V259.154C15.6445 254.837 19.1469 251.337 23.4668 251.337Z" fill="#792EFF"/>
<path d="M470.067 500.759C503.818 500.759 531.178 528.102 531.178 561.832C531.178 595.562 503.818 622.905 470.067 622.905C436.316 622.905 408.956 595.562 408.956 561.832C408.956 528.102 436.316 500.759 470.067 500.759Z" fill="white"/>
<path d="M487.41 41.0732H1384.06C1388.37 41.0732 1391.87 44.5574 1391.87 48.8536V227.789C1391.87 232.086 1388.37 235.569 1384.06 235.569H487.41C483.095 235.569 479.597 232.086 479.597 227.789V48.8536C479.597 44.5574 483.095 41.0732 487.41 41.0732Z" fill="#FFD233"/>
<path d="M933.523 75.3435C967.44 75.3435 994.935 102.575 994.935 136.166C994.935 169.758 967.44 196.989 933.523 196.989C899.606 196.989 872.111 169.758 872.111 136.166C872.111 102.575 899.606 75.3435 933.523 75.3435Z" fill="white"/>
<g opacity="0.0271266">
<path d="M489.604 137.227C490.417 137.227 491.078 137.881 491.078 138.687C491.078 139.492 490.417 140.146 489.604 140.146C488.79 140.146 488.13 139.492 488.13 138.687C488.13 137.881 488.79 137.227 489.604 137.227ZM484.199 137.227C485.013 137.227 485.673 137.881 485.673 138.687C485.673 139.492 485.013 140.146 484.199 140.146C483.386 140.146 482.726 139.492 482.726 138.687C482.726 137.881 483.386 137.227 484.199 137.227Z" fill="black"/>
<path d="M489.604 142.093C490.417 142.093 491.078 142.747 491.078 143.552C491.078 144.358 490.417 145.012 489.604 145.012C488.79 145.012 488.13 144.358 488.13 143.552C488.13 142.747 488.79 142.093 489.604 142.093ZM484.199 142.093C485.013 142.093 485.673 142.747 485.673 143.552C485.673 144.358 485.013 145.012 484.199 145.012C483.386 145.012 482.726 144.358 482.726 143.552C482.726 142.747 483.386 142.093 484.199 142.093Z" fill="black"/>
<path d="M489.604 146.958C490.417 146.958 491.078 147.613 491.078 148.418C491.078 149.224 490.417 149.878 489.604 149.878C488.79 149.878 488.13 149.224 488.13 148.418C488.13 147.613 488.79 146.958 489.604 146.958ZM484.199 146.958C485.013 146.958 485.673 147.613 485.673 148.418C485.673 149.224 485.013 149.878 484.199 149.878C483.386 149.878 482.726 149.224 482.726 148.418C482.726 147.613 483.386 146.958 484.199 146.958Z" fill="black"/>
</g>
</g>
</g>
<defs>
<filter id="filter0_f_97_5398" x="197.378" y="830.219" width="316.089" height="388.265" filterUnits="userSpaceOnUse" color-interpolation-filters="sRGB">
<feFlood flood-opacity="0" result="BackgroundImageFix"/>
<feBlend mode="normal" in="SourceGraphic" in2="BackgroundImageFix" result="shape"/>
<feGaussianBlur stdDeviation="25" result="effect1_foregroundBlur_97_5398"/>
</filter>
<clipPath id="clip0_97_5398">
<rect width="1408" height="881" fill="white"/>
</clipPath>
<clipPath id="clip1_97_5398">
<rect width="1408" height="856" fill="white" transform="translate(0 25)"/>
</clipPath>
</defs>
</svg>
