<svg xmlns="http://www.w3.org/2000/svg" width="17" height="16" viewBox="0 0 17 16"
  fill="black">
  <path
    d="M9.51934 0.770915C9.861 0.966679 10.1449 1.24903 10.3427 1.58974L16.4879 12.1742C16.6852 12.5143 16.7891 12.8999 16.789 13.2925C16.789 13.6851 16.6851 14.0708 16.4877 14.4108C16.2903 14.7508 16.0064 15.0332 15.6646 15.2296C15.3227 15.4259 14.9349 15.5294 14.5401 15.5295H2.24982C1.85496 15.5295 1.46704 15.4262 1.12505 15.2299C0.783067 15.0336 0.49906 14.7513 0.301574 14.4112C0.104088 14.0712 7.89903e-05 13.6854 4.49747e-08 13.2928C-7.89004e-05 12.9001 0.103775 12.5143 0.301124 12.1742L6.44628 1.58974C6.74461 1.07591 7.23598 0.70098 7.81228 0.547422C8.38859 0.393863 9.00263 0.474256 9.51934 0.770915Z"
    fill="black"
  />
</svg>